G04 #@! TF.FileFunction,Copper,L1,Top,Signal*
%FSLAX46Y46*%
G04 Gerber Fmt 4.6, Leading zero omitted, Abs format (unit mm)*
G04 Created by KiCad (PCBNEW 4.0.6) date Sun Sep  8 22:16:29 2019*
%MOMM*%
%LPD*%
G01*
G04 APERTURE LIST*
%ADD10C,0.100000*%
%ADD11R,1.800000X1.800000*%
%ADD12C,1.800000*%
%ADD13C,1.600000*%
%ADD14O,1.600000X1.600000*%
%ADD15R,1.700000X1.700000*%
%ADD16O,1.700000X1.700000*%
%ADD17C,0.700000*%
G04 APERTURE END LIST*
D10*
D11*
X154940000Y-82550000D03*
D12*
X157480000Y-82550000D03*
D11*
X154940000Y-90170000D03*
D12*
X157480000Y-90170000D03*
D11*
X154940000Y-97790000D03*
D12*
X157480000Y-97790000D03*
D11*
X154940000Y-105410000D03*
D12*
X157480000Y-105410000D03*
D11*
X154940000Y-113030000D03*
D12*
X157480000Y-113030000D03*
D11*
X154940000Y-120650000D03*
D12*
X157480000Y-120650000D03*
D11*
X154940000Y-128270000D03*
D12*
X157480000Y-128270000D03*
D11*
X154940000Y-135890000D03*
D12*
X157480000Y-135890000D03*
D13*
X165100000Y-91440000D03*
D14*
X175260000Y-91440000D03*
D13*
X165100000Y-96520000D03*
D14*
X175260000Y-96520000D03*
D13*
X165100000Y-101600000D03*
D14*
X175260000Y-101600000D03*
D13*
X165100000Y-106680000D03*
D14*
X175260000Y-106680000D03*
D13*
X165100000Y-111760000D03*
D14*
X175260000Y-111760000D03*
D13*
X165100000Y-116840000D03*
D14*
X175260000Y-116840000D03*
D13*
X165100000Y-121920000D03*
D14*
X175260000Y-121920000D03*
D13*
X165100000Y-127000000D03*
D14*
X175260000Y-127000000D03*
D15*
X182880000Y-102870000D03*
D16*
X182880000Y-105410000D03*
X182880000Y-107950000D03*
X182880000Y-110490000D03*
X182880000Y-113030000D03*
X182880000Y-115570000D03*
X182880000Y-118110000D03*
X182880000Y-120650000D03*
D15*
X182880000Y-96520000D03*
D17*
X154940000Y-135890000D02*
X154940000Y-128270000D01*
X154940000Y-128270000D02*
X154940000Y-120650000D01*
X154940000Y-120650000D02*
X154940000Y-113030000D01*
X154940000Y-113030000D02*
X154940000Y-105410000D01*
X154940000Y-105410000D02*
X154940000Y-97790000D01*
X154940000Y-90170000D02*
X154940000Y-82550000D01*
X182880000Y-96520000D02*
X181330000Y-96520000D01*
X156431300Y-96298700D02*
X154940000Y-97790000D01*
X158072600Y-96298700D02*
X156431300Y-96298700D01*
X159648000Y-97874100D02*
X158072600Y-96298700D01*
X166916200Y-97874100D02*
X159648000Y-97874100D01*
X169620600Y-95169700D02*
X166916200Y-97874100D01*
X179979700Y-95169700D02*
X169620600Y-95169700D01*
X181330000Y-96520000D02*
X179979700Y-95169700D01*
X154940000Y-94807400D02*
X154940000Y-90170000D01*
X156431300Y-96298700D02*
X154940000Y-94807400D01*
X157480000Y-83820000D02*
X157480000Y-82550000D01*
X165100000Y-91440000D02*
X157480000Y-83820000D01*
X158750000Y-90170000D02*
X157480000Y-90170000D01*
X165100000Y-96520000D02*
X158750000Y-90170000D01*
X161290000Y-101600000D02*
X157480000Y-97790000D01*
X165100000Y-101600000D02*
X161290000Y-101600000D01*
X158750000Y-106680000D02*
X157480000Y-105410000D01*
X165100000Y-106680000D02*
X158750000Y-106680000D01*
X158750000Y-111760000D02*
X157480000Y-113030000D01*
X165100000Y-111760000D02*
X158750000Y-111760000D01*
X161290000Y-116840000D02*
X157480000Y-120650000D01*
X165100000Y-116840000D02*
X161290000Y-116840000D01*
X163830000Y-121920000D02*
X157480000Y-128270000D01*
X165100000Y-121920000D02*
X163830000Y-121920000D01*
X157480000Y-134620000D02*
X157480000Y-135890000D01*
X165100000Y-127000000D02*
X157480000Y-134620000D01*
X180319500Y-91440000D02*
X175260000Y-91440000D01*
X184281100Y-95401600D02*
X180319500Y-91440000D01*
X184281100Y-99918900D02*
X184281100Y-95401600D01*
X182880000Y-101320000D02*
X184281100Y-99918900D01*
X182880000Y-102870000D02*
X182880000Y-101320000D01*
X181330000Y-104090000D02*
X175260000Y-98020000D01*
X181330000Y-105410000D02*
X181330000Y-104090000D01*
X175260000Y-96520000D02*
X175260000Y-98020000D01*
X182880000Y-105410000D02*
X181330000Y-105410000D01*
X176480000Y-103100000D02*
X175260000Y-103100000D01*
X181330000Y-107950000D02*
X176480000Y-103100000D01*
X182880000Y-107950000D02*
X181330000Y-107950000D01*
X175260000Y-101600000D02*
X175260000Y-103100000D01*
X180570000Y-110490000D02*
X176760000Y-106680000D01*
X182880000Y-110490000D02*
X180570000Y-110490000D01*
X175260000Y-106680000D02*
X176760000Y-106680000D01*
X178030000Y-113030000D02*
X176760000Y-111760000D01*
X182880000Y-113030000D02*
X178030000Y-113030000D01*
X175260000Y-111760000D02*
X176760000Y-111760000D01*
X178030000Y-115570000D02*
X176760000Y-116840000D01*
X182880000Y-115570000D02*
X178030000Y-115570000D01*
X175260000Y-116840000D02*
X176760000Y-116840000D01*
X180570000Y-118110000D02*
X176760000Y-121920000D01*
X182880000Y-118110000D02*
X180570000Y-118110000D01*
X175260000Y-121920000D02*
X176760000Y-121920000D01*
X176480000Y-125500000D02*
X175260000Y-125500000D01*
X181330000Y-120650000D02*
X176480000Y-125500000D01*
X182880000Y-120650000D02*
X181330000Y-120650000D01*
X175260000Y-127000000D02*
X175260000Y-125500000D01*
M02*
