<?xml version="1.0" standalone="no"?>
 <!DOCTYPE svg PUBLIC "-//W3C//DTD SVG 1.1//EN" 
 "http://www.w3.org/Graphics/SVG/1.1/DTD/svg11.dtd"> 
<svg xmlns="http://www.w3.org/2000/svg" version="1.1" 
    width="27.94cm" height="21.59cm" viewBox="0 0 110000 85000 ">
<title>SVG Picture created as Placas-F.SilkS.svg date 2019/09/08 22:16:21 </title>
  <desc>Picture generated by PCBNEW </desc>
<g style="fill:#000000; fill-opacity:1;stroke:#000000; stroke-opacity:1;
stroke-linecap:round; stroke-linejoin:round; "
 transform="translate(0 0) scale(1 1)">
</g>
<g style="fill:#000000; fill-opacity:0.0; 
stroke:#000000; stroke-width:-0.000393701; stroke-opacity:1; 
stroke-linecap:round; stroke-linejoin:round;">
</g>
<g style="fill:#000000; fill-opacity:0.0; 
stroke:#000000; stroke-width:47.2441; stroke-opacity:1; 
stroke-linecap:round; stroke-linejoin:round;">
<path d="M62677.2 32500.2 A1177.17 1177.17 0.0 0 0 60492.1 31891.8 " />
<path d="M60492.1 33108.2 A1177.17 1177.17 0.0 0 0 62677.2 32499.8 " />
<circle cx="61500" cy="32500" r="984.252" /> 
<path d="M60492 31891
L60492 33108
" />
<path d="M62677.2 35500.2 A1177.17 1177.17 0.0 0 0 60492.1 34891.8 " />
<path d="M60492.1 36108.2 A1177.17 1177.17 0.0 0 0 62677.2 35499.8 " />
<circle cx="61500" cy="35500" r="984.252" /> 
<path d="M60492 34891
L60492 36108
" />
<path d="M62677.2 38500.2 A1177.17 1177.17 0.0 0 0 60492.1 37891.8 " />
<path d="M60492.1 39108.2 A1177.17 1177.17 0.0 0 0 62677.2 38499.8 " />
<circle cx="61500" cy="38500" r="984.252" /> 
<path d="M60492 37891
L60492 39108
" />
<path d="M62677.2 41500.2 A1177.17 1177.17 0.0 0 0 60492.1 40891.8 " />
<path d="M60492.1 42108.2 A1177.17 1177.17 0.0 0 0 62677.2 41499.8 " />
<circle cx="61500" cy="41500" r="984.252" /> 
<path d="M60492 40891
L60492 42108
" />
<path d="M62677.2 44500.2 A1177.17 1177.17 0.0 0 0 60492.1 43891.8 " />
<path d="M60492.1 45108.2 A1177.17 1177.17 0.0 0 0 62677.2 44499.8 " />
<circle cx="61500" cy="44500" r="984.252" /> 
<path d="M60492 43891
L60492 45108
" />
<path d="M62677.2 47500.2 A1177.17 1177.17 0.0 0 0 60492.1 46891.8 " />
<path d="M60492.1 48108.2 A1177.17 1177.17 0.0 0 0 62677.2 47499.8 " />
<circle cx="61500" cy="47500" r="984.252" /> 
<path d="M60492 46891
L60492 48108
" />
<path d="M62677.2 50500.2 A1177.17 1177.17 0.0 0 0 60492.1 49891.8 " />
<path d="M60492.1 51108.2 A1177.17 1177.17 0.0 0 0 62677.2 50499.8 " />
<circle cx="61500" cy="50500" r="984.252" /> 
<path d="M60492 49891
L60492 51108
" />
<path d="M62677.2 53500.2 A1177.17 1177.17 0.0 0 0 60492.1 52891.8 " />
<path d="M60492.1 54108.2 A1177.17 1177.17 0.0 0 0 62677.2 53499.8 " />
<circle cx="61500" cy="53500" r="984.252" /> 
<path d="M60492 52891
L60492 54108
" />
<path d="M65736 35484
L65736 36515
" />
<path d="M65736 36515
L68263 36515
" />
<path d="M68263 36515
L68263 35484
" />
<path d="M68263 35484
L65736 35484
" />
<path d="M65385 36000
L65736 36000
" />
<path d="M68614 36000
L68263 36000
" />
<path d="M65736 37484
L65736 38515
" />
<path d="M65736 38515
L68263 38515
" />
<path d="M68263 38515
L68263 37484
" />
<path d="M68263 37484
L65736 37484
" />
<path d="M65385 38000
L65736 38000
" />
<path d="M68614 38000
L68263 38000
" />
<path d="M65736 39484
L65736 40515
" />
<path d="M65736 40515
L68263 40515
" />
<path d="M68263 40515
L68263 39484
" />
<path d="M68263 39484
L65736 39484
" />
<path d="M65385 40000
L65736 40000
" />
<path d="M68614 40000
L68263 40000
" />
<path d="M65736 41484
L65736 42515
" />
<path d="M65736 42515
L68263 42515
" />
<path d="M68263 42515
L68263 41484
" />
<path d="M68263 41484
L65736 41484
" />
<path d="M65385 42000
L65736 42000
" />
<path d="M68614 42000
L68263 42000
" />
<path d="M65736 43484
L65736 44515
" />
<path d="M65736 44515
L68263 44515
" />
<path d="M68263 44515
L68263 43484
" />
<path d="M68263 43484
L65736 43484
" />
<path d="M65385 44000
L65736 44000
" />
<path d="M68614 44000
L68263 44000
" />
<path d="M65736 45484
L65736 46515
" />
<path d="M65736 46515
L68263 46515
" />
<path d="M68263 46515
L68263 45484
" />
<path d="M68263 45484
L65736 45484
" />
<path d="M65385 46000
L65736 46000
" />
<path d="M68614 46000
L68263 46000
" />
<path d="M65736 47484
L65736 48515
" />
<path d="M65736 48515
L68263 48515
" />
<path d="M68263 48515
L68263 47484
" />
<path d="M68263 47484
L65736 47484
" />
<path d="M65385 48000
L65736 48000
" />
<path d="M68614 48000
L68263 48000
" />
<path d="M65736 49484
L65736 50515
" />
<path d="M65736 50515
L68263 50515
" />
<path d="M68263 50515
L68263 49484
" />
<path d="M68263 49484
L65736 49484
" />
<path d="M65385 50000
L65736 50000
" />
<path d="M68614 50000
L68263 50000
" />
<path d="M71452 41000
L71452 48047
" />
<path d="M71452 48047
L72547 48047
" />
<path d="M72547 48047
L72547 41000
" />
<path d="M72547 41000
L71452 41000
" />
<path d="M71452 40500
L71452 39952
" />
<path d="M71452 39952
L72000 39952
" />
<path d="M71452 38500
L71452 38547
" />
<path d="M71452 38547
L72547 38547
" />
<path d="M72547 38547
L72547 38500
" />
<path d="M72547 38500
L71452 38500
" />
<path d="M71452 38000
L71452 37452
" />
<path d="M71452 37452
L72000 37452
" />
</g>
<g style="fill:#000000; fill-opacity:0.0; 
stroke:#000000; stroke-width:59.0551; stroke-opacity:1; 
stroke-linecap:round; stroke-linejoin:round;">
<path d="M61059 31119
L61059 30725
L61153 30725
L61209 30744
L61246 30781
L61265 30819
L61284 30894
L61284 30950
L61265 31025
L61246 31062
L61209 31100
L61153 31119
L61059 31119
" />
<path d="M61359 31156
L61659 31156
" />
<path d="M61959 31119
L61734 31119
" />
<path d="M61846 31119
L61846 30725
L61809 30781
L61771 30819
L61734 30837
" />
<path d="M61059 34119
L61059 33725
L61153 33725
L61209 33744
L61246 33781
L61265 33819
L61284 33894
L61284 33950
L61265 34025
L61246 34062
L61209 34100
L61153 34119
L61059 34119
" />
<path d="M61359 34156
L61659 34156
" />
<path d="M61734 33762
L61753 33744
L61790 33725
L61884 33725
L61921 33744
L61940 33762
L61959 33800
L61959 33837
L61940 33894
L61715 34119
L61959 34119
" />
<path d="M61059 37119
L61059 36725
L61153 36725
L61209 36744
L61246 36781
L61265 36819
L61284 36894
L61284 36950
L61265 37025
L61246 37062
L61209 37100
L61153 37119
L61059 37119
" />
<path d="M61359 37156
L61659 37156
" />
<path d="M61715 36725
L61959 36725
L61828 36875
L61884 36875
L61921 36894
L61940 36912
L61959 36950
L61959 37044
L61940 37081
L61921 37100
L61884 37119
L61771 37119
L61734 37100
L61715 37081
" />
<path d="M61059 40119
L61059 39725
L61153 39725
L61209 39744
L61246 39781
L61265 39819
L61284 39894
L61284 39950
L61265 40025
L61246 40062
L61209 40100
L61153 40119
L61059 40119
" />
<path d="M61359 40156
L61659 40156
" />
<path d="M61921 39856
L61921 40119
" />
<path d="M61828 39706
L61734 39987
L61978 39987
" />
<path d="M61059 43119
L61059 42725
L61153 42725
L61209 42744
L61246 42781
L61265 42819
L61284 42894
L61284 42950
L61265 43025
L61246 43062
L61209 43100
L61153 43119
L61059 43119
" />
<path d="M61359 43156
L61659 43156
" />
<path d="M61940 42725
L61753 42725
L61734 42912
L61753 42894
L61790 42875
L61884 42875
L61921 42894
L61940 42912
L61959 42950
L61959 43044
L61940 43081
L61921 43100
L61884 43119
L61790 43119
L61753 43100
L61734 43081
" />
<path d="M61059 46119
L61059 45725
L61153 45725
L61209 45744
L61246 45781
L61265 45819
L61284 45894
L61284 45950
L61265 46025
L61246 46062
L61209 46100
L61153 46119
L61059 46119
" />
<path d="M61359 46156
L61659 46156
" />
<path d="M61921 45725
L61846 45725
L61809 45744
L61790 45762
L61753 45819
L61734 45894
L61734 46044
L61753 46081
L61771 46100
L61809 46119
L61884 46119
L61921 46100
L61940 46081
L61959 46044
L61959 45950
L61940 45912
L61921 45894
L61884 45875
L61809 45875
L61771 45894
L61753 45912
L61734 45950
" />
<path d="M61059 49119
L61059 48725
L61153 48725
L61209 48744
L61246 48781
L61265 48819
L61284 48894
L61284 48950
L61265 49025
L61246 49062
L61209 49100
L61153 49119
L61059 49119
" />
<path d="M61359 49156
L61659 49156
" />
<path d="M61715 48725
L61978 48725
L61809 49119
" />
<path d="M61059 52119
L61059 51725
L61153 51725
L61209 51744
L61246 51781
L61265 51819
L61284 51894
L61284 51950
L61265 52025
L61246 52062
L61209 52100
L61153 52119
L61059 52119
" />
<path d="M61359 52156
L61659 52156
" />
<path d="M61809 51894
L61771 51875
L61753 51856
L61734 51819
L61734 51800
L61753 51762
L61771 51744
L61809 51725
L61884 51725
L61921 51744
L61940 51762
L61959 51800
L61959 51819
L61940 51856
L61921 51875
L61884 51894
L61809 51894
L61771 51912
L61753 51931
L61734 51969
L61734 52044
L61753 52081
L61771 52100
L61809 52119
L61884 52119
L61921 52100
L61940 52081
L61959 52044
L61959 51969
L61940 51931
L61921 51912
L61884 51894
" />
<path d="M66784 35268
L66653 35081
" />
<path d="M66559 35268
L66559 34874
L66709 34874
L66746 34893
L66765 34912
L66784 34949
L66784 35006
L66765 35043
L66746 35062
L66709 35081
L66559 35081
" />
<path d="M66859 35306
L67159 35306
" />
<path d="M67459 35268
L67234 35268
" />
<path d="M67346 35268
L67346 34874
L67309 34931
L67271 34968
L67234 34987
" />
<path d="M66784 37268
L66653 37081
" />
<path d="M66559 37268
L66559 36874
L66709 36874
L66746 36893
L66765 36912
L66784 36949
L66784 37006
L66765 37043
L66746 37062
L66709 37081
L66559 37081
" />
<path d="M66859 37306
L67159 37306
" />
<path d="M67234 36912
L67253 36893
L67290 36874
L67384 36874
L67421 36893
L67440 36912
L67459 36949
L67459 36987
L67440 37043
L67215 37268
L67459 37268
" />
<path d="M66784 39268
L66653 39081
" />
<path d="M66559 39268
L66559 38874
L66709 38874
L66746 38893
L66765 38912
L66784 38949
L66784 39006
L66765 39043
L66746 39062
L66709 39081
L66559 39081
" />
<path d="M66859 39306
L67159 39306
" />
<path d="M67215 38874
L67459 38874
L67328 39024
L67384 39024
L67421 39043
L67440 39062
L67459 39099
L67459 39193
L67440 39231
L67421 39249
L67384 39268
L67271 39268
L67234 39249
L67215 39231
" />
<path d="M66784 41268
L66653 41081
" />
<path d="M66559 41268
L66559 40874
L66709 40874
L66746 40893
L66765 40912
L66784 40949
L66784 41006
L66765 41043
L66746 41062
L66709 41081
L66559 41081
" />
<path d="M66859 41306
L67159 41306
" />
<path d="M67421 41006
L67421 41268
" />
<path d="M67328 40856
L67234 41137
L67478 41137
" />
<path d="M66784 43268
L66653 43081
" />
<path d="M66559 43268
L66559 42874
L66709 42874
L66746 42893
L66765 42912
L66784 42949
L66784 43006
L66765 43043
L66746 43062
L66709 43081
L66559 43081
" />
<path d="M66859 43306
L67159 43306
" />
<path d="M67440 42874
L67253 42874
L67234 43062
L67253 43043
L67290 43024
L67384 43024
L67421 43043
L67440 43062
L67459 43099
L67459 43193
L67440 43231
L67421 43249
L67384 43268
L67290 43268
L67253 43249
L67234 43231
" />
<path d="M66784 45268
L66653 45081
" />
<path d="M66559 45268
L66559 44874
L66709 44874
L66746 44893
L66765 44912
L66784 44949
L66784 45006
L66765 45043
L66746 45062
L66709 45081
L66559 45081
" />
<path d="M66859 45306
L67159 45306
" />
<path d="M67421 44874
L67346 44874
L67309 44893
L67290 44912
L67253 44968
L67234 45043
L67234 45193
L67253 45231
L67271 45249
L67309 45268
L67384 45268
L67421 45249
L67440 45231
L67459 45193
L67459 45099
L67440 45062
L67421 45043
L67384 45024
L67309 45024
L67271 45043
L67253 45062
L67234 45099
" />
<path d="M66784 47268
L66653 47081
" />
<path d="M66559 47268
L66559 46874
L66709 46874
L66746 46893
L66765 46912
L66784 46949
L66784 47006
L66765 47043
L66746 47062
L66709 47081
L66559 47081
" />
<path d="M66859 47306
L67159 47306
" />
<path d="M67215 46874
L67478 46874
L67309 47268
" />
<path d="M66784 49268
L66653 49081
" />
<path d="M66559 49268
L66559 48874
L66709 48874
L66746 48893
L66765 48912
L66784 48949
L66784 49006
L66765 49043
L66746 49062
L66709 49081
L66559 49081
" />
<path d="M66859 49306
L67159 49306
" />
<path d="M67309 49043
L67271 49024
L67253 49006
L67234 48968
L67234 48949
L67253 48912
L67271 48893
L67309 48874
L67384 48874
L67421 48893
L67440 48912
L67459 48949
L67459 48968
L67440 49006
L67421 49024
L67384 49043
L67309 49043
L67271 49062
L67253 49081
L67234 49118
L67234 49193
L67253 49231
L67271 49249
L67309 49268
L67384 49268
L67421 49249
L67440 49231
L67459 49193
L67459 49118
L67440 49081
L67421 49062
L67384 49043
" />
<path d="M71606 39737
L71606 39343
" />
<path d="M71793 39737
L71793 39343
L72018 39737
L72018 39343
" />
<path d="M72412 39737
L72187 39737
" />
<path d="M72299 39737
L72299 39343
L72262 39399
L72224 39437
L72187 39455
" />
<path d="M71278 37199
L71259 37218
L71203 37237
L71165 37237
L71109 37218
L71071 37180
L71053 37143
L71034 37068
L71034 37012
L71053 36937
L71071 36899
L71109 36862
L71165 36843
L71203 36843
L71259 36862
L71278 36880
" />
<path d="M71521 36843
L71596 36843
L71634 36862
L71671 36899
L71690 36974
L71690 37105
L71671 37180
L71634 37218
L71596 37237
L71521 37237
L71484 37218
L71446 37180
L71428 37105
L71428 36974
L71446 36899
L71484 36862
L71521 36843
" />
<path d="M71859 37237
L71859 36843
L71990 37124
L72121 36843
L72121 37237
" />
<path d="M72309 37237
L72309 36843
L72440 37124
L72571 36843
L72571 37237
" />
<path d="M72965 37237
L72740 37237
" />
<path d="M72853 37237
L72853 36843
L72815 36899
L72778 36937
L72740 36955
" />
</g> 
</svg>
