M48
;DRILL file {KiCad 4.0.6} date Sun Sep  8 22:13:58 2019
;FORMAT={-:-/ absolute / inch / decimal}
FMAT,2
INCH,TZ
T1C0.031
T2C0.035
T3C0.039
%
G90
G05
M72
T1
X6.5Y-3.6
X6.5Y-3.8
X6.5Y-4.
X6.5Y-4.2
X6.5Y-4.4
X6.5Y-4.6
X6.5Y-4.8
X6.5Y-5.
X6.9Y-3.6
X6.9Y-3.8
X6.9Y-4.
X6.9Y-4.2
X6.9Y-4.4
X6.9Y-4.6
X6.9Y-4.8
X6.9Y-5.
T2
X6.1Y-3.25
X6.1Y-3.55
X6.1Y-3.85
X6.1Y-4.15
X6.1Y-4.45
X6.1Y-4.75
X6.1Y-5.05
X6.1Y-5.35
X6.2Y-3.25
X6.2Y-3.55
X6.2Y-3.85
X6.2Y-4.15
X6.2Y-4.45
X6.2Y-4.75
X6.2Y-5.05
X6.2Y-5.35
T3
X7.2Y-3.8
X7.2Y-4.05
X7.2Y-4.15
X7.2Y-4.25
X7.2Y-4.35
X7.2Y-4.45
X7.2Y-4.55
X7.2Y-4.65
X7.2Y-4.75
T0
M30
